<?xml version="1.0" encoding="UTF-8" standalone="no"?>
<!DOCTYPE svg PUBLIC "-//W3C//DTD SVG 1.1//EN"
 "http://www.w3.org/Graphics/SVG/1.1/DTD/svg11.dtd">
<!-- Generated by graphviz version 12.1.0 (20240811.2233)
 -->
<!-- Pages: 1 -->
<svg width="312pt" height="188pt"
 viewBox="0.00 0.00 312.00 188.00" xmlns="http://www.w3.org/2000/svg" xmlns:xlink="http://www.w3.org/1999/xlink">
<g id="graph0" class="graph" transform="scale(1 1) rotate(0) translate(4 184)">
<polygon fill="white" stroke="none" points="-4,4 -4,-184 308,-184 308,4 -4,4"/>
<!-- 5607048072999791980 -->
<g id="node1" class="node">
<title>5607048072999791980</title>
<polygon fill="none" stroke="black" points="230.12,-180 73.88,-180 73.88,-144 230.12,-144 230.12,-180"/>
<text text-anchor="middle" x="152" y="-154.62" font-family="Helvetica,sans-Serif" font-size="20.00">Max(Projection)</text>
</g>
<!-- &#45;3420367837694670905 -->
<g id="node2" class="node">
<title>&#45;3420367837694670905</title>
<polygon fill="none" stroke="black" points="304,-108 0,-108 0,-72 304,-72 304,-108"/>
<text text-anchor="middle" x="152" y="-82.62" font-family="Helvetica,sans-Serif" font-size="20.00">Projection(ReadCSV, DepDelay)</text>
</g>
<!-- &#45;3420367837694670905&#45;&gt;5607048072999791980 -->
<g id="edge1" class="edge">
<title>&#45;3420367837694670905&#45;&gt;5607048072999791980</title>
<path fill="none" stroke="black" d="M152,-108.3C152,-115.59 152,-124.27 152,-132.46"/>
<polygon fill="black" stroke="black" points="148.5,-132.38 152,-142.38 155.5,-132.38 148.5,-132.38"/>
</g>
<!-- 117451786535297679 -->
<g id="node3" class="node">
<title>117451786535297679</title>
<polygon fill="none" stroke="black" points="204.62,-36 99.38,-36 99.38,0 204.62,0 204.62,-36"/>
<text text-anchor="middle" x="152" y="-10.62" font-family="Helvetica,sans-Serif" font-size="20.00">ReadCSV</text>
</g>
<!-- 117451786535297679&#45;&gt;&#45;3420367837694670905 -->
<g id="edge2" class="edge">
<title>117451786535297679&#45;&gt;&#45;3420367837694670905</title>
<path fill="none" stroke="black" d="M152,-36.3C152,-43.59 152,-52.27 152,-60.46"/>
<polygon fill="black" stroke="black" points="148.5,-60.38 152,-70.38 155.5,-60.38 148.5,-60.38"/>
</g>
</g>
</svg>
